<?xml version="1.0" encoding="utf-8"?>
<!-- Generator: Adobe Illustrator 24.3.0, SVG Export Plug-In . SVG Version: 6.00 Build 0)  -->
<svg version="1.1" id="Layer_1" xmlns="http://www.w3.org/2000/svg" xmlns:xlink="http://www.w3.org/1999/xlink" x="0px" y="0px"
	 viewBox="0 0 138.09 343" style="enable-background:new 0 0 138.09 343;" xml:space="preserve">
<style type="text/css">
	.st0{fill:#ADADAD;}
</style>
<path class="st0" d="M57.7,16.51c-11.1-1.5-13.9-0.4-14-11.2c0.2-2.6,2.8-8.3,8,0.1c2.3,2.7,5.2,4.2,7.6,5c-2.2-0.8,14.4,3,25.4,0.8
	c2.8,1.9,0,5.4-0.9,6.4c-0.3,0.3-10.8,2.9-20.9,2.2c-0.1-0.3-1.1-3-1.1-3C61.9,16.81,58,16.51,57.7,16.51 M134.6,157.01
	c-0.6-4.4-1.3-8.4-2-12.2c-5.4-18.4-12.1-38-30.6-46.4c-7.8-3-22.6-2.3-24.7-20.7c0-4.9-0.1-55.6-0.1-55.6l-23.5,4.8v3.6
	c0,0-0.4,10.7-0.4,10.6c0,0,0,5,0.2,11.1c0.5,28.4,2,46.4-28.9,58c-19.1,7.2-20.3,15.8-22.3,37.7c-0.1,1.6-0.3,3.1-0.4,4.6
	c0-0.6-6.3,61.4,14.5,160.1c0,0,3.2,16.1,3.6,18.4c0.2,1.2,1.4,2.8,4.7,5.1c35.4,8.5,43,2.3,61.6,4.8c18.8,2.5,35.7-9.7,36-9.9
	c1.9-0.5,8-13.3,8.8-29.2C138.4,258.61,136.6,189.81,134.6,157.01"/>
</svg>
